PathFileType	4	(X/Y/Z)	C:/Users/opensim2020/Desktop/walking_exp_matlab/subject02_walking13_straight_02.trc																																																																																																																									
DataRate	CameraRate	NumFrames	NumMarkers	Units	OrigDataRate	OrigDataStartFrame	OrigNumFrames																																																																																																																					
100	100	4	41	mm	100	928	125																																																																																																																					
Frame#	Time	LFHD			RFHD			LBHD			RBHD			C7			T10			CLAV			STRN			RBAK			LSHO			LUPA			LELB			LFRM			LWRA			LWRB			LFIN			RSHO			RUPA			RELB			RFRM			RWRA			RWRB			RFIN			LASI			RASI			LPSI			RPSI			LTHI			LKNE			LTIB			LANK			LHEE			LTOE			RTHI			RKNE			RTIB			RANK			RHEE			RTOE			*39			*40		
		X1	Y1	Z1	X2	Y2	Z2	X3	Y3	Z3	X4	Y4	Z4	X5	Y5	Z5	X6	Y6	Z6	X7	Y7	Z7	X8	Y8	Z8	X9	Y9	Z9	X10	Y10	Z10	X11	Y11	Z11	X12	Y12	Z12	X13	Y13	Z13	X14	Y14	Z14	X15	Y15	Z15	X16	Y16	Z16	X17	Y17	Z17	X18	Y18	Z18	X19	Y19	Z19	X20	Y20	Z20	X21	Y21	Z21	X22	Y22	Z22	X23	Y23	Z23	X24	Y24	Z24	X25	Y25	Z25	X26	Y26	Z26	X27	Y27	Z27	X28	Y28	Z28	X29	Y29	Z29	X30	Y30	Z30	X31	Y31	Z31	X32	Y32	Z32	X33	Y33	Z33	X34	Y34	Z34	X35	Y35	Z35	X36	Y36	Z36	X37	Y37	Z37	X38	Y38	Z38	X39	Y39	Z39	X40	Y40	Z40	X41	Y41	Z41
																																																																																																																												
63	0.62	-146.17339	1729.61169	-1469.28247	-169.84737	1705.61133	-1328.94458	-282.15402	1673.18445	-1499.75403	-318.27579	1649.77588	-1362.31348	-361.1922	1527.04187	-1430.4812	-412.37692	1247.89258	-1424.61914	-224.60532	1456.46362	-1444.04395	-170.61137	1286.14514	-1431.27185	-418.3139	1350.41492	-1361.75867	-301.491	1496.21118	-1610.44714	-355.86737	1304.30188	-1688.81287	-386.25549	1167.12268	-1702.67896	-400.66885	1034.39758	-1716.23328	-367.91626	900.06299	-1681.03491	-410.05728	910.26984	-1717.72583	-405.95718	842.50781	-1714.52075	-286.15576	1495.59924	-1248.12744	-288.63733	1311.44824	-1151.0603	-243.23889	1170.34619	-1120.67407	-167.60019	1072.47559	-1116.89539	-77.90263	978.53278	-1154.87048	-112.31888	955.11816	-1116.0481	-50.74216	916.96545	-1123.73376	-182.03001	988.82532	-1551.44922	-205.45996	965.24786	-1299.08313	-395.87991	1037.2262	-1488.08459	-408.59692	1035.9054	-1373.46387	-182.02144	692.24432	-1636.91101	-148.70082	496.49557	-1613.59851	-167.49075	302.66165	-1615.93445	-110.96236	82.47437	-1604.05444	-126.27955	48.24953	-1547.11731	38.70763	75.29969	-1646.30164	-321.09219	660.2207	-1267.65552	-357.24377	455.73032	-1325.9967	-430.4603	281.42868	-1331.73877	-479.8161	96.97124	-1385.22327	-520.48083	47.25571	-1444.56519	-334.55392	37.44518	-1367.42126	-251.2574	1804.59619	-1390.72144	-2845.9314	1034.25928	3356.9895
64	0.63	-133.11253	1727.26367	-1470.14685	-156.76143	1703.46838	-1329.974	-269.23279	1670.99634	-1500.68982	-305.23535	1647.76794	-1363.21948	-348.34525	1524.91064	-1431.48279	-399.55569	1245.77429	-1426.97925	-211.61853	1454.25635	-1444.74316	-157.77397	1283.96436	-1431.60974	-405.43576	1348.08337	-1363.13855	-288.03104	1493.82996	-1611.15125	-345.28882	1302.47827	-1688.51721	-377.93103	1165.91162	-1700.94312	-397.02127	1034.17761	-1714.62939	-369.73355	898.30853	-1679.50293	-411.25354	910.45172	-1716.52271	-410.51276	842.32446	-1712.78821	-273.92584	1493.56592	-1249.12622	-274.66501	1309.94556	-1150.94519	-227.28532	1169.33337	-1120.19922	-149.62996	1073.54993	-1117.19751	-57.3459	982.87219	-1156.17163	-90.73435	958.01221	-1117.07837	-27.98494	921.63696	-1125.14014	-167.86705	985.79022	-1552.1781	-194.37823	963.586	-1299.21167	-382.48273	1034.33398	-1491.09778	-397.1142	1033.10486	-1377.10632	-169.328	688.4433	-1637.59961	-133.92288	493.71802	-1614.48242	-143.4985	299.27942	-1617.81445	-75.99777	81.80633	-1607.09937	-90.27913	46.46171	-1550.45898	74.46172	81.88348	-1647.96887	-314.20807	659.43695	-1268.64941	-352.36548	455.22031	-1326.86072	-427.99374	282.02725	-1332.59766	-479.26477	97.80753	-1385.9137	-519.66962	48.12946	-1445.32825	-334.43765	37.35458	-1367.18555	-238.07433	1802.47961	-1391.62158	NaN	NaN	NaN
65	0.64	-120.25603	1725.01855	-1471.42139	-143.67589	1701.26282	-1330.97375	-256.49811	1668.83167	-1501.88831	-292.21454	1645.61853	-1364.0481	-335.466	1522.5946	-1432.49695	-386.66681	1243.4679	-1429.37805	-198.56372	1452.00061	-1445.51697	-144.94514	1281.64099	-1431.97742	-392.95306	1345.69006	-1365.07141	-274.86246	1491.53662	-1612.36011	-334.63452	1300.58142	-1688.34912	-369.37341	1164.71606	-1699.39355	-392.83694	1034.11218	-1713.22363	-371.09265	896.69354	-1677.92639	-411.90771	911.12604	-1715.72705	-414.33075	842.69409	-1711.35999	-261.5705	1491.48254	-1250.27942	-261.08307	1308.23022	-1151.18188	-212.09511	1168.47156	-1119.65686	-131.79739	1074.58508	-1117.41174	-37.11085	986.88879	-1157.19519	-69.53142	960.78906	-1118.14014	-5.88172	926.57037	-1126.79614	-153.63376	982.72882	-1553.06555	-183.1714	961.86432	-1299.36084	-368.59995	1031.12085	-1493.87561	-385.40128	1030.1604	-1380.8385	-157.40921	685.11987	-1638.97205	-119.42963	490.83252	-1615.47876	-120.20422	296.39151	-1619.73584	-42.65442	81.93742	-1609.72876	-55.81968	45.49269	-1552.89026	108.56066	88.56464	-1648.53784	-307.03757	658.64899	-1269.62097	-347.31415	454.74539	-1327.69702	-425.51563	282.67227	-1333.47742	-478.54669	98.90348	-1386.72791	-519.05658	49.41056	-1446.36133	-334.31525	37.27008	-1366.98291	-225.06151	1800.27515	-1392.80188	-2845.90601	1034.15649	3356.86108
66	0.65	-107.06978	1722.50232	-1472.26025	-130.57027	1699.005	-1332.00061	-243.34674	1666.375	-1502.53394	-279.14746	1643.39001	-1364.92065	-322.5928	1520.24109	-1433.59497	-373.60849	1241.07605	-1431.77209	-185.49294	1449.60547	-1446.28674	-131.78976	1279.48621	-1432.54968	-380.04993	1342.98242	-1366.84521	-261.38422	1489.10889	-1613.36975	-323.81018	1298.96118	-1688.64771	-360.5668	1163.59277	-1698.13098	-388.21811	1034.01831	-1712.02148	-371.63596	896.05103	-1677.21985	-411.63541	911.91443	-1714.98462	-417.35889	843.52875	-1710.21216	-249.50432	1489.01025	-1251.33777	-248.34039	1306.41846	-1151.9071	-197.23872	1167.32739	-1118.86401	-113.9568	1075.46643	-1117.52869	-16.59663	990.68896	-1157.82507	-48.71971	963.38647	-1119.15332	15.74477	931.30133	-1128.26477	-139.14549	979.65503	-1553.84021	-171.68808	960.16382	-1299.60669	-354.9776	1028.10718	-1496.7262	-373.35983	1027.14246	-1384.60974	-145.38974	681.78503	-1640.37097	-104.9126	487.9118	-1616.57629	-97.91678	293.93039	-1621.56274	-10.97347	82.59913	-1611.89587	-23.80177	45.53591	-1556.01343	140.7856	95.13777	-1648.16431	-300.05313	657.92279	-1270.38452	-342.1254	454.28708	-1328.49243	-423.31705	283.61282	-1334.10388	-477.7966	100.01048	-1387.5658	-518.28253	50.67274	-1447.43457	-334.21048	37.20618	-1366.729	-211.95082	1797.99011	-1393.8219	-2845.82056	1034.18298	3356.85767
